<svg width="20" height="20" viewBox="0 0 20 20" fill="none" xmlns="http://www.w3.org/2000/svg">
<circle cx="10" cy="10" r="10" fill="white"/>
<path d="M3.49146 11.4449C3.5596 11.3766 3.64506 11.3282 3.73865 11.3048C3.83224 11.2814 3.93044 11.2839 4.02271 11.3121C5.03569 11.6184 6.11277 11.644 7.13919 11.3864C8.16562 11.1288 9.10291 10.5975 9.85122 9.84923C10.5995 9.10093 11.1308 8.16363 11.3884 7.1372C11.646 6.11078 11.6204 5.0337 11.3141 4.02072C11.2857 3.92841 11.283 3.83011 11.3062 3.73637C11.3295 3.64264 11.3779 3.55702 11.4462 3.48873C11.5145 3.42044 11.6001 3.37205 11.6938 3.34878C11.7876 3.32551 11.8859 3.32823 11.9782 3.35665C13.3787 3.78567 14.6082 4.64546 15.4917 5.81369C16.2644 6.83957 16.7357 8.06059 16.8527 9.33957C16.9697 10.6186 16.7278 11.9048 16.1541 13.0539C15.5803 14.2029 14.6976 15.1692 13.6049 15.8442C12.5123 16.5192 11.253 16.8762 9.96872 16.875C8.47037 16.8796 7.01188 16.3925 5.817 15.4884C4.64878 14.6049 3.78899 13.3753 3.35997 11.9749C3.33188 11.8829 3.32927 11.785 3.35243 11.6917C3.37558 11.5984 3.42363 11.5131 3.49146 11.4449ZM6.45583 14.6397C7.58106 15.4873 8.97456 15.8998 10.3798 15.8014C11.7851 15.703 13.1075 15.1003 14.1036 14.1042C15.0998 13.1082 15.7026 11.7858 15.8011 10.3806C15.8996 8.97533 15.4872 7.58179 14.6397 6.4565C14.0876 5.7274 13.3739 5.13637 12.5546 4.72994C12.6013 5.05747 12.6248 5.38788 12.625 5.71872C12.623 7.54978 11.8948 9.30529 10.6 10.6C9.30529 11.8948 7.54978 12.623 5.71872 12.625C5.38722 12.6249 5.05613 12.6013 4.72794 12.5546C5.13476 13.374 5.72625 14.0878 6.45583 14.6397Z" fill="#155DA4"/>
</svg>
