<svg width="20" height="20" viewBox="0 0 20 20" fill="none" xmlns="http://www.w3.org/2000/svg">
<circle cx="10" cy="10" r="10" fill="white"/>
<path d="M10.0002 13.7917C12.0942 13.7917 13.7918 12.0941 13.7918 10C13.7918 7.90596 12.0942 6.20837 10.0002 6.20837C7.90608 6.20837 6.2085 7.90596 6.2085 10C6.2085 12.0941 7.90608 13.7917 10.0002 13.7917Z" stroke="#155DA4" stroke-linecap="round" stroke-linejoin="round"/>
<path d="M14.1648 14.165L14.089 14.0891M14.089 5.91079L14.1648 5.83496L14.089 5.91079ZM5.83484 14.165L5.91067 14.0891L5.83484 14.165ZM9.99984 4.21329V4.16663V4.21329ZM9.99984 15.8333V15.7866V15.8333ZM4.21317 9.99996H4.1665H4.21317ZM15.8332 9.99996H15.7865H15.8332ZM5.91067 5.91079L5.83484 5.83496L5.91067 5.91079Z" stroke="#155DA4" stroke-linecap="round" stroke-linejoin="round"/>
</svg>
