<svg width="101" height="41" viewBox="0 0 101 41" fill="none" xmlns="http://www.w3.org/2000/svg">
<path d="M67.9127 35.3012C66.3194 36.4633 64.3877 37.0692 62.4156 37.0253C59.3488 37.0253 56.3608 36.2369 54.7512 35.1961C54.9721 34.518 55.3456 33.2144 55.4981 32.468L59.091 15.616C59.389 14.3389 59.5651 13.0365 59.617 11.7262C59.6263 11.2368 59.5768 10.7479 59.4698 10.2702L64.6881 8.66174C64.8027 9.18988 64.8521 9.73005 64.8354 10.2702C64.8172 11.4373 64.6922 12.6003 64.4619 13.7447L63.8254 16.7724C63.65 17.6467 63.4127 18.5074 63.1152 19.348C63.768 18.5918 64.5751 17.9838 65.4824 17.565C66.3897 17.1461 67.3762 16.926 68.3756 16.9196C71.9317 16.9196 73.4993 19.4269 73.4993 23.5742C73.4993 28.2787 71.5161 32.7676 67.9285 35.3012H67.9127ZM66.5292 20.9933C64.9984 20.9933 63.373 22.2653 62.3788 23.9842L60.5113 32.4996C61.2447 33.0879 62.1712 33.3822 63.11 33.3248C64.1936 33.3248 65.5403 32.3156 66.2662 31.0856C67.3183 29.2143 68.06 24.9934 68.06 23.4953C68.06 21.8553 67.5761 20.9933 66.5661 20.9933H66.5292ZM83.2468 15.2428C82.4288 15.2372 81.6464 14.9075 81.0714 14.3261C80.4964 13.7446 80.1758 12.9589 80.18 12.1415C80.1834 11.731 80.2678 11.3252 80.4284 10.9474C80.5889 10.5695 80.8225 10.227 81.1156 9.93947C81.4088 9.65191 81.7558 9.42493 82.1369 9.27153C82.5179 9.11812 82.9255 9.0413 83.3363 9.04546C83.739 9.04889 84.137 9.1318 84.5076 9.28945C84.8781 9.4471 85.2138 9.67636 85.4954 9.96407C85.7769 10.2518 85.9988 10.5923 86.1483 10.9659C86.2977 11.3396 86.3718 11.7391 86.3663 12.1415C86.367 12.5489 86.2871 12.9525 86.1314 13.3291C85.9757 13.7057 85.7471 14.0478 85.4588 14.336C85.1704 14.6241 84.828 14.8525 84.4511 15.0081C84.0743 15.1637 83.6704 15.2435 83.2626 15.2428H83.2468ZM80.5535 36.5417H75.5456L79.5435 17.7501L84.704 16.9616L80.5535 36.5417ZM99.4068 17.4084L97.613 20.8461H94.2832L92.2632 30.4496C92.139 30.9998 92.0772 31.5623 92.0791 32.1264C92.0791 33.1776 92.6367 33.514 93.7571 33.514C94.3974 33.4868 95.0294 33.3591 95.6298 33.1356V36.1633C94.2692 36.6924 92.8237 36.9702 91.3637 36.9833C88.4862 36.9833 86.8397 35.564 86.8397 33.698C86.8447 32.8696 86.9328 32.0437 87.1027 31.2328L89.3068 20.8461H87.4026L88.1495 17.4084H90.0591C90.3176 15.8719 90.7048 14.3597 91.2164 12.8879L96.4768 11.6158C95.9192 13.3715 95.3563 15.4635 94.946 17.3979L99.4068 17.4084Z" fill="#155DA4"/>
<path d="M28.8286 3.63327C19.8227 7.83314 15.5145 12.853 13.0841 17.3472C13.0315 17.5154 13.1367 17.7362 13.2525 17.6206C15.8459 16.1908 18.2762 15.4707 19.9332 15.4707C23.8575 15.4497 27.3557 18.9242 27.3925 24.1806C27.3925 29.642 24.7623 34.1152 19.7701 36.6015C17.9265 37.5019 15.9091 37.9916 13.8574 38.0365C6.72956 38.0312 3.68378 32.9535 3.68378 27.3765C3.68378 15.6704 15.0726 5.67801 28.2236 1.92493C28.4972 2.03006 29.0495 3.4125 28.8286 3.63327ZM11.4797 21.0267C10.7152 23.1333 10.3218 25.3564 10.3172 27.5972C10.3172 33.1165 12.3635 35.7447 15.404 35.7447C18.718 35.7447 21.0432 31.1295 21.0432 26.2831C20.9905 21.258 19.0021 18.8821 15.688 18.8821C14.5799 18.9165 13.4967 19.2195 12.5318 19.7652C12.0692 20.0829 11.7048 20.5235 11.4797 21.0372V21.0267ZM54.0891 3.63327C45.078 7.82788 40.7645 12.853 38.3341 17.3472C38.2815 17.5102 38.3867 17.731 38.5025 17.6206C41.0959 16.1856 43.5262 15.4654 45.1832 15.4654C49.1075 15.4444 52.6057 18.9242 52.6425 24.1806C52.6425 29.6472 50.0123 34.1204 45.0201 36.6067C43.176 37.5054 41.1587 37.9932 39.1074 38.0365C31.9796 38.026 28.9338 32.9483 28.9338 27.3765C28.9338 15.6652 40.3226 5.67275 53.4736 1.91968C53.7524 2.03006 54.3048 3.4125 54.0838 3.63327H54.0891ZM36.735 21.0267C35.9675 23.1325 35.5741 25.3561 35.5724 27.5972C35.5724 33.1165 37.6187 35.7447 40.654 35.7447C43.968 35.7447 46.2932 31.1295 46.2932 26.2831C46.2353 21.2633 44.2468 18.8874 40.9328 18.8874C39.8246 18.9217 38.7414 19.2248 37.7765 19.7704C37.3122 20.0862 36.9473 20.5274 36.7245 21.0425L36.735 21.0267Z" fill="#155DA4"/>
</svg>
